<svg viewBox="0 0 609.821 156.201" height="156.201" width="609.821" xmlns="http://www.w3.org/2000/svg">
  <g transform="translate(-125.389 -97.839)" id="logo">
    <g data-name="Group 1" id="Group_1">
      <path d="M458.22,202.02q-4.5,3.39-11.72,3.41a25.574,25.574,0,0,1-9.25-1.58,19.135,19.135,0,0,1-7.04-4.41l.61-1.32a16.918,16.918,0,0,0,6.15,3.77,21.484,21.484,0,0,0,7.6,1.39c3.22-.02,5.84-.14,7.86-1.63a8.155,8.155,0,0,0,3.01-6.53,4.738,4.738,0,0,0-1.47-3.58,10.906,10.906,0,0,0-3.66-2.7c-1.46-.69-3.45-1.48-5.95-2.4a58.745,58.745,0,0,1-6.76-2.81,13.071,13.071,0,0,1-4.35-3.55,8.847,8.847,0,0,1-1.82-5.7,10.022,10.022,0,0,1,4.11-8.44,17.106,17.106,0,0,1,10.58-3.18,21.013,21.013,0,0,1,8.06,1.46,17.67,17.67,0,0,1,6.15,4l-.46,1.24a17.769,17.769,0,0,0-5.5-3.35,16.847,16.847,0,0,0-6.26-1.2,11.013,11.013,0,0,0-6.71,2.05,6.4,6.4,0,0,0-2.7,5.41,4.418,4.418,0,0,0,1.43,3.39,10.731,10.731,0,0,0,3.57,2.67q2.145,1.02,5.84,2.39a58.282,58.282,0,0,1,6.91,2.85,13.4,13.4,0,0,1,4.42,3.58,9.038,9.038,0,0,1,1.82,5.78,10.547,10.547,0,0,1-4.47,8.99m-36.96-35.7c.56.48,4.95,4.46,4.94,10.4l.1,28.26-6.57.02-.58-9.26a18.446,18.446,0,0,1-6.55,7.32,16.443,16.443,0,0,1-9.03,2.78,13.5,13.5,0,0,1-9.48-3.25,11.141,11.141,0,0,1-3.63-8.67,9.414,9.414,0,0,1,4.65-8.2q4.665-3.105,12.39-3.13l11.13-.04-.02-5.55s.35-7.12-3.33-9.66a11.551,11.551,0,0,0-6.78-2.02,17.084,17.084,0,0,0-6.29,1.26,18.046,18.046,0,0,0-5.51,3.41l-.47-1.24a17.667,17.667,0,0,1,6.17-4.07,21.311,21.311,0,0,1,8.12-1.54,17.167,17.167,0,0,1,10.62,3.08,1.274,1.274,0,0,1,.12.1m-2.61,18.09-9.66.03a10.81,10.81,0,0,0-7.65,2.69,9.306,9.306,0,0,0-2.83,7.15,9.44,9.44,0,0,0,2.23,6.58,7.121,7.121,0,0,0,5.85,2.72,10.886,10.886,0,0,0,6.79-2.65,18.838,18.838,0,0,0,5.31-6.89Zm77.69-18.36c.56.48,4.95,4.46,4.94,10.41l.11,28.26-6.57.02-.57-9.26a18.5,18.5,0,0,1-6.54,7.32,16.393,16.393,0,0,1-9.04,2.78,13.5,13.5,0,0,1-9.49-3.25,11.2,11.2,0,0,1-3.62-8.67,9.383,9.383,0,0,1,4.64-8.2q4.665-3.105,12.4-3.13l11.13-.04-.02-5.55s.35-7.11-3.33-9.66a11.449,11.449,0,0,0-6.77-2.02,17.1,17.1,0,0,0-6.3,1.26,18.048,18.048,0,0,0-5.52,3.42l-.47-1.24a17.9,17.9,0,0,1,6.17-4.07,21.608,21.608,0,0,1,8.11-1.54,17.231,17.231,0,0,1,10.62,3.08.233.233,0,0,1,.12.08m-2.62,18.08-9.67.03a10.829,10.829,0,0,0-7.64,2.69,9.291,9.291,0,0,0-2.83,7.15,9.436,9.436,0,0,0,2.22,6.58,7.134,7.134,0,0,0,5.85,2.72,10.911,10.911,0,0,0,6.8-2.65,18.921,18.921,0,0,0,5.31-6.89ZM376.87,204.01a26.777,26.777,0,0,0,9.53-6.24l-.63-1.58a24.523,24.523,0,0,1-8.36,5.49,26.11,26.11,0,0,1-9.86,2.12,20.814,20.814,0,0,1-11.97-3.49,22.8,22.8,0,0,1-8.06-9.9,36.916,36.916,0,0,1-.1-28.35,22.975,22.975,0,0,1,7.95-9.97,20.554,20.554,0,0,1,11.91-3.58,27.74,27.74,0,0,1,9.49,1.73,22.6,22.6,0,0,1,7.92,4.64l.7-1.35a25.33,25.33,0,0,0-9.11-5.54,32.086,32.086,0,0,0-11.45-2.08,29.628,29.628,0,0,0-15.09,3.83,25.983,25.983,0,0,0-10.11,10.68,36.422,36.422,0,0,0,.12,31.66,25.929,25.929,0,0,0,10.19,10.61,29.726,29.726,0,0,0,15.11,3.71,31.117,31.117,0,0,0,11.82-2.39" data-name="Path 1" id="Path_1"></path>
      <path d="M640.45,165.63a1.06,1.06,0,0,0-.12-.1,17.167,17.167,0,0,0-10.62-3.08,21.608,21.608,0,0,0-8.11,1.54,17.687,17.687,0,0,0-6.17,4.08l.47,1.24a18.365,18.365,0,0,1,5.52-3.42,17.1,17.1,0,0,1,6.3-1.26,11.519,11.519,0,0,1,6.77,2.02c3.68,2.55,3.33,9.66,3.33,9.66l.02,5.55-11.13.04q-7.74.03-12.4,3.13a9.426,9.426,0,0,0-4.65,8.2,11.141,11.141,0,0,0,3.63,8.67,13.5,13.5,0,0,0,9.48,3.25,16.406,16.406,0,0,0,9.04-2.77,18.588,18.588,0,0,0,6.55-7.32l.57,9.26,6.57-.02-.1-28.26c0-5.95-4.39-9.93-4.95-10.41m-2.58,27.73a18.838,18.838,0,0,1-5.31,6.89,10.89,10.89,0,0,1-6.8,2.65,7.1,7.1,0,0,1-5.84-2.72,9.411,9.411,0,0,1-2.23-6.58,9.263,9.263,0,0,1,2.84-7.15,10.784,10.784,0,0,1,7.64-2.69l9.66-.04Z" data-name="Path 2" id="Path_2"></path>
      <path d="M685.17,165.66a12.352,12.352,0,0,1,3.41,9.03l.11,29.42-7.52.02-.11-29.95a9.347,9.347,0,0,0-2.05-6.27,6.674,6.674,0,0,0-5.34-2.35,12.147,12.147,0,0,0-7.44,2.78,18.453,18.453,0,0,0-5.57,7.22l.11,28.65-7.52.03-.15-41.14,6.52-.02.64,9.57a17.993,17.993,0,0,1,6.57-7.53,17.016,17.016,0,0,1,9.43-2.87,11.868,11.868,0,0,1,8.91,3.41" data-name="Path 3" id="Path_3"></path>
      <rect transform="translate(580.227 163.374) rotate(-0.217)" height="41.14" width="7.52" data-name="Rectangle 1" id="Rectangle_1"></rect>
      <rect transform="translate(597.054 145.984) rotate(-0.217)" height="58.44" width="7.52" data-name="Rectangle 2" id="Rectangle_2"></rect>
      <path d="M732.69,194.21a18.222,18.222,0,0,1-7.18,7.5,23.024,23.024,0,0,1-21.41.08,18.336,18.336,0,0,1-7.24-7.44,25.624,25.624,0,0,1-.08-22.37,18.607,18.607,0,0,1,7.18-7.53,22.7,22.7,0,0,1,21.4-.08,18.561,18.561,0,0,1,7.24,7.48,23.527,23.527,0,0,1,2.61,11.17,23.148,23.148,0,0,1-2.52,11.19m-28.92-.54a16.209,16.209,0,0,0,4.43,7.03,9.765,9.765,0,0,0,6.61,2.47,9.646,9.646,0,0,0,6.51-2.51,16.148,16.148,0,0,0,4.39-7.06,36.1,36.1,0,0,0-.08-21.06,16.461,16.461,0,0,0-4.44-7.07,9.479,9.479,0,0,0-6.53-2.5,9.678,9.678,0,0,0-6.55,2.55,16.321,16.321,0,0,0-4.43,7.11,35.921,35.921,0,0,0,.09,21.04" data-name="Path 4" id="Path_4"></path>
      <path d="M521.21,145.81l-1.07.01h-.76l.21,58.8h1.86l-.16-43.43,21.43,43.35,1.09-.01,20.66-44.3.08,44.23,6.45-.03-.29-58.81-1.13.01-23.37,50.48-24.98-50.25" data-name="Path 5" id="Path_5"></path>
      <rect transform="translate(579.5 149.869) rotate(-45.243)" height="6.24" width="6.24" data-name="Rectangle 3" id="Rectangle_3"></rect>
    </g>
    <path d="M265.89,169.17l6.81,6.74-6.76,6.8-6.8-6.74Z" data-name="Path 6" id="Path_6"></path>
    <g data-name="Group 2" id="Group_2">
      <path d="M203.88,254.04a78.1,78.1,0,1,1,77.92-78.38,78.244,78.244,0,0,1-77.92,78.38M203.32,99.9a76.041,76.041,0,1,0,76.43,75.76A76.18,76.18,0,0,0,203.32,99.9" data-name="Path 7" id="Path_7"></path>
      <path d="M203.55,245.18a69.231,69.231,0,1,1,61.29-101.1l-4.95,2.61a63.6,63.6,0,1,0,1,56.52l5.04,2.43a69.746,69.746,0,0,1-62.38,39.54" data-name="Path 8" id="Path_8"></path>
      <path d="M236.42,136.92l-32.31,68.31-33.56-68.31h-2.46v77.76h2.45V155.7l29.04,59.1h2.45l27.61-58.36V214.8h9.23V136.92Z" data-name="Path 9" id="Path_9"></path>
    </g>
  </g>
</svg>
