<svg xmlns="http://www.w3.org/2000/svg" width="200" height="60" viewBox="0 0 200 60" fill="none"><path d="M22.8181 36.7896L21.9688 41.0835C22.5152 41.6152 23.1398 42.1079 23.8667 42.5332C27.4553 44.31 28.5873 48.2714 28.8175 51.8183L192.651 52L195.749 36.7896H22.8181Z" fill="#1E51AB"></path><path d="M113.751 12.7764L109.853 34.8906H99.8151L88.55 20.8917L86.084 34.8906H80.1426L84.0407 12.7764H92.8264L105.145 27.8925L107.801 12.7764H113.751Z" fill="#FF2E17"></path><path d="M144.97 12.7759L142.354 27.6134C141.464 32.7001 136.003 35.2441 127.632 35.2441C116.688 35.2441 113.668 32.7001 114.564 27.6134L117.176 12.7759H126.715L124.31 26.4342C123.96 28.3779 124.144 29.7173 124.847 30.4253C125.543 31.136 127.015 31.5008 129.24 31.5008C133.56 31.5008 136.035 29.7428 136.652 26.2471L139.032 12.7759H144.97Z" fill="#FF2E17"></path><path d="M154.58 31.6931H157.3C160.872 31.6931 162.797 30.8398 163.282 28.0978C163.831 24.9548 162.115 24.2266 158.452 24.2266H155.889L154.58 31.6931ZM156.455 21.0311H159.4C162.113 21.0311 163.638 20.0498 163.948 18.2784C164.205 16.8166 162.925 15.9672 160.05 15.9672H157.348L156.455 21.0311ZM144.471 34.8887L148.376 12.7744H163.943C171.472 12.7744 173.979 14.5754 173.342 18.1936C172.886 20.7673 170.33 22.4094 165.656 23.143C170.995 23.8766 173.391 25.8324 172.831 29.0064C172.144 32.9288 168.106 34.8887 160.738 34.8887H144.471Z" fill="#FF2E17"></path><path d="M200 12.7764L199.237 17.0797H187.459L186.642 21.6845H196.545L195.792 25.9973H185.88L185.076 30.5833H196.857L196.093 34.8906H174.783L178.676 12.7764H200Z" fill="#FF2E17"></path><path d="M60.3137 27.4833L66.0183 18.069L68.1208 27.4833H60.3137ZM69.7711 34.8906H79.3657L74.1094 12.7764H64.3573L50.7285 34.8906H55.8287L58.4468 30.5833H68.8127L69.7711 34.8906Z" fill="#FF2E17"></path><path d="M41.2146 12.3583L37.7041 12.3745L37.159 15.6131L39.0233 15.6212C44.4425 15.6212 44.4559 20.0779 43.8246 23.6503C43.2027 27.208 42.5661 28.2727 41.4179 29.6362C40.2737 30.9984 38.5333 31.6849 36.1871 31.6849H33.6242L37.1253 12.4095H33.5744L32.5501 18.8624H29.5874L28.5725 24.5401H25.3366L23.3027 34.9531H36.6892C46.9475 34.9531 52.7395 31.1909 54.064 23.6786C55.3858 16.1246 51.1067 12.3583 41.2146 12.3583Z" fill="#FF2E17"></path><path d="M137.417 49.7539H125.228C124.109 49.7539 123.226 49.4066 122.58 48.7107C121.935 47.9973 121.714 47.1574 121.92 46.1882L123.591 38.3569H126.839L125.228 45.9042C125.166 46.1882 125.23 46.4251 125.419 46.6149C125.614 46.8087 125.864 46.907 126.171 46.907H128.283L130.087 38.3569H133.335L131.531 46.907H134.779L136.591 38.3569H139.839L137.417 49.7539Z" fill="white"></path><path d="M149.003 45.9042L149.796 42.1972C149.824 42.0639 149.822 41.9347 149.788 41.8122C149.754 41.6911 149.696 41.5847 149.613 41.4959C149.529 41.407 149.423 41.3357 149.295 41.2832C149.167 41.2294 149.025 41.2038 148.87 41.2038H144.653C144.353 41.2038 144.063 41.3007 143.784 41.4959C143.518 41.6911 143.356 41.9239 143.3 42.1972L142.499 45.9042C142.437 46.1882 142.502 46.4251 142.69 46.6136C142.885 46.8087 143.136 46.9057 143.443 46.9057H147.658C147.971 46.9057 148.257 46.8087 148.519 46.6136C148.781 46.4197 148.941 46.1828 149.003 45.9042ZM152.193 46.1882C151.981 47.1681 151.404 48.0081 150.465 48.7094C149.517 49.4053 148.488 49.7539 147.374 49.7539H142.499C141.38 49.7539 140.497 49.4053 139.851 48.7094C139.207 47.9973 138.986 47.156 139.192 46.1882L140.111 41.9132C140.317 40.9386 140.89 40.1041 141.831 39.4082C142.771 38.7069 143.803 38.3569 144.929 38.3569H149.796C150.921 38.3569 151.806 38.7069 152.452 39.4082C153.091 40.1041 153.309 40.9386 153.103 41.9132L152.193 46.1882Z" fill="white"></path><path d="M163.631 43.0627L163.814 42.1999C163.843 42.0666 163.84 41.9374 163.806 41.8149C163.773 41.6924 163.715 41.5861 163.631 41.4972C163.548 41.407 163.441 41.3357 163.314 41.2832C163.186 41.2307 163.044 41.2038 162.888 41.2038H157.536L156.918 44.0588H162.278C162.579 44.0588 162.868 43.9619 163.147 43.7667C163.414 43.5702 163.576 43.3359 163.631 43.0627ZM166.821 43.3413C166.609 44.3266 166.035 45.1666 165.101 45.8625C164.155 46.5584 163.122 46.9057 162.002 46.9057H160.709L164.642 49.7539H159.924L156.325 46.9057L155.707 49.7539H152.459L154.881 38.3569H163.814C164.94 38.3569 165.824 38.7069 166.47 39.4082C167.109 40.1041 167.327 40.9386 167.122 41.9132L166.821 43.3413Z" fill="white"></path><path d="M177.041 49.7539H166.479L168.9 38.3569H172.148L170.344 46.907H177.651L177.041 49.7539Z" fill="white"></path><path d="M188.627 45.9042L189.42 42.1972C189.448 42.0639 189.445 41.9347 189.412 41.8122C189.378 41.6911 189.32 41.5847 189.237 41.4959C189.153 41.407 189.047 41.3357 188.919 41.2832C188.791 41.2294 188.648 41.2038 188.494 41.2038H183.142L181.93 46.9057H187.282C187.594 46.9057 187.881 46.8087 188.142 46.6136C188.405 46.4197 188.565 46.1828 188.627 45.9042ZM191.817 46.1882C191.604 47.1681 191.028 48.0081 190.087 48.7094C189.141 49.4053 188.111 49.7539 186.998 49.7539H178.064L180.486 38.3569H189.42C190.545 38.3569 191.429 38.7069 192.075 39.4082C192.715 40.1041 192.933 40.9386 192.727 41.9132L191.817 46.1882Z" fill="white"></path><path d="M113.782 46.6048C113.581 47.5457 113.024 48.3681 112.113 49.0735C111.207 49.7801 110.228 50.1328 109.178 50.1328H100.471L101.107 47.1984H109.316C109.586 47.1984 109.835 47.1096 110.064 46.9319C110.3 46.7542 110.441 46.5469 110.487 46.3127C110.538 46.0879 110.48 45.8847 110.314 45.7016C110.154 45.5239 109.942 45.4351 109.678 45.4351H104.481C103.436 45.4351 102.611 45.0784 102.003 44.3677C101.394 43.657 101.188 42.8359 101.383 41.9071C101.579 40.9837 102.132 40.1653 103.043 39.4546C103.944 38.7439 104.922 38.3872 105.977 38.3872H114.685L114.074 41.3216H105.866C105.591 41.3216 105.338 41.4104 105.109 41.5881C104.868 41.7604 104.722 41.9636 104.67 42.1992C104.623 42.4348 104.681 42.6407 104.841 42.8184C105.003 42.9974 105.214 43.0849 105.478 43.0849H110.675C111.725 43.0849 112.554 43.4416 113.163 44.1523C113.77 44.8576 113.977 45.676 113.782 46.6048ZM100.455 41.3216H96.2724L94.3973 50.1328H91.0416L92.9261 41.3216H88.7358L89.355 38.3872H101.074L100.455 41.3216ZM83.9264 43.237L84.1162 42.3486C84.1445 42.21 84.1418 42.078 84.1068 41.9515C84.0731 41.825 84.0126 41.716 83.9264 41.6231C83.8403 41.5316 83.7312 41.4589 83.5993 41.4037C83.4674 41.3485 83.3207 41.3216 83.1605 41.3216H77.6457L77.0091 44.264H82.5332C82.8428 44.264 83.1403 44.1631 83.427 43.9625C83.703 43.7606 83.8685 43.5197 83.9264 43.237ZM87.2135 43.5237C86.9954 44.54 86.4045 45.4055 85.4407 46.1229C84.4662 46.8404 83.4014 47.1984 82.2492 47.1984H80.9153L84.9683 50.1328H80.1063L76.3979 47.1984L75.7613 50.1328H72.4136L74.9092 38.3872H84.1162C85.2751 38.3872 86.1864 38.7493 86.8527 39.4721C87.5123 40.1895 87.7357 41.0497 87.5231 42.0525L87.2135 43.5237ZM68.8533 46.166L69.6704 42.3459C69.6987 42.2073 69.696 42.0754 69.6623 41.9502C69.6273 41.8236 69.5667 41.7146 69.4806 41.6231C69.3945 41.5316 69.2854 41.4575 69.1535 41.4037C69.0216 41.3485 68.8762 41.3216 68.7147 41.3216H64.3696C64.0601 41.3216 63.7626 41.4225 63.4745 41.6231C63.1999 41.8236 63.033 42.0646 62.9765 42.3459L62.15 46.166C62.0867 46.4581 62.1527 46.7017 62.3479 46.8969C62.5484 47.0975 62.8069 47.1984 63.1219 47.1984H67.4683C67.7886 47.1984 68.0847 47.0975 68.354 46.8969C68.6232 46.6963 68.7901 46.4527 68.8533 46.166ZM72.1404 46.4581C71.9223 47.4676 71.3274 48.3345 70.3582 49.0573C69.3837 49.7748 68.323 50.1328 67.1748 50.1328H62.15C60.9978 50.1328 60.0879 49.7748 59.4229 49.0573C58.7566 48.3224 58.5305 47.4569 58.7432 46.4581L59.6894 42.0525C59.9021 41.0497 60.493 40.1895 61.4622 39.4721C62.4313 38.7493 63.4947 38.3872 64.6537 38.3872H69.6704C70.8293 38.3872 71.7406 38.7493 72.4069 39.4721C73.0665 40.1895 73.2899 41.0497 73.0772 42.0525L72.1404 46.4581ZM55.0348 43.237L55.2246 42.3486C55.2528 42.21 55.2502 42.078 55.2165 41.9515C55.1815 41.825 55.1209 41.716 55.0348 41.6231C54.95 41.5316 54.8396 41.4589 54.7077 41.4037C54.5758 41.3485 54.4304 41.3216 54.2689 41.3216H48.7541L48.1174 44.264H53.6416C53.9512 44.264 54.2487 44.1631 54.5367 43.9625C54.8113 43.7606 54.9783 43.5197 55.0348 43.237ZM58.3218 43.5237C58.1038 44.54 57.5129 45.4055 56.5491 46.1229C55.5746 46.8404 54.5098 47.1984 53.3576 47.1984H47.5063L46.8696 50.1328H43.522L46.0176 38.3872H55.2246C56.3835 38.3872 57.2948 38.7493 57.9611 39.4721C58.6207 40.1895 58.8441 41.0497 58.6314 42.0525L58.3218 43.5237ZM43.2232 46.6048C43.0213 47.5457 42.4654 48.3681 41.5527 49.0735C40.6469 49.7801 39.6696 50.1328 38.6197 50.1328H29.9121L30.5488 47.1984H38.757C39.0262 47.1984 39.2766 47.1096 39.5054 46.9319C39.741 46.7542 39.881 46.5469 39.9267 46.3127C39.9792 46.0879 39.9213 45.8847 39.7544 45.7016C39.5942 45.5239 39.3816 45.4351 39.1177 45.4351H33.9206C32.8775 45.4351 32.051 45.0784 31.4426 44.3677C30.8355 43.657 30.6282 42.8359 30.8234 41.9071C31.0186 40.9837 31.5718 40.1653 32.4844 39.4546C33.3849 38.7439 34.3635 38.3872 35.4188 38.3872H44.1264L43.5153 41.3216H35.3071C35.0311 41.3216 34.7781 41.4104 34.5493 41.5881C34.3083 41.7604 34.1616 41.9636 34.1104 42.1992C34.0647 42.4348 34.1226 42.6407 34.2827 42.8184C34.4429 42.9974 34.6556 43.0849 34.9194 43.0849H40.1165C41.1664 43.0849 41.9943 43.4416 42.6027 44.1523C43.2111 44.8576 43.417 45.676 43.2232 46.6048Z" fill="white"></path><path d="M14.2364 26.7164C14.2364 26.7164 18.4751 28.189 18.9502 30.8111C19.4711 33.6889 17.3619 34.9582 12.3761 36.0095C8.39854 36.8494 6.55041 36.7283 5.27435 37.9303C4.36712 38.7851 4.2204 40.0032 5.19628 41.1797C3.90004 39.8996 2.838 38.0286 3.90273 36.2289C4.15713 35.7995 5.11956 34.222 9.25597 32.145C12.5605 30.484 14.6348 29.9402 14.2364 26.7164Z" fill="#1E51AB"></path><path d="M6.99316 38.4542C6.9945 38.1459 7.03219 37.8363 7.10353 37.5321C6.50723 37.7125 6.04419 37.9467 5.64576 38.3209C4.85159 39.0693 4.7964 40.0156 5.48154 40.9403C5.54211 41.0009 5.60672 41.0614 5.67807 41.1193C12.7731 46.9598 15.2404 52.4746 15.2404 52.4746C15.2404 52.4746 15.519 45.5815 12.1553 42.0468C9.77275 39.5431 6.98643 40.235 6.99316 38.4542Z" fill="#FF2E17"></path><path d="M18.3863 34.1225C18.249 34.2571 18.0996 34.3864 17.934 34.5102C16.9622 35.2344 15.4532 35.8078 13.0977 36.3422C14.8623 39.5215 18.9691 43.6997 21.1915 45.918C19.0997 42.005 18.5276 37.1135 18.3863 34.1225Z" fill="#FF2E17"></path><path d="M8.70944 18.6487C6.25155 20.2438 5.88139 21.6733 6.0631 23.4205C6.24347 25.1394 8.18582 26.8125 8.18582 26.8125C7.89642 25.8178 8.36889 24.2214 10.2655 22.6626C11.6209 21.5468 13.7141 20.1617 17.1249 18.4441C21.2223 16.382 24.2254 15.219 26.3387 13.8648C29.3942 11.9063 33.5575 9.01233 35.4945 -0.000822067C31.7646 11.8996 19.1077 11.8996 8.70944 18.6487Z" fill="#1E51AB"></path><path d="M22.0018 16.6381C20.6382 17.3003 19.093 18.0514 17.331 18.9385C13.2336 21.002 11.469 22.2107 10.201 23.4047C8.80243 24.7211 8.18459 26.8142 9.71774 28.9423C10.0044 29.3408 10.3558 29.7701 10.7394 30.2695C10.7394 30.2695 10.5146 26.7913 16.5503 22.9241C22.341 19.2131 27.1491 17.1792 29.393 12.5744C28.5692 13.2003 27.6175 13.7804 26.4761 14.3956C25.2337 15.0672 23.7678 15.7793 22.0018 16.6381Z" fill="#FF2E17"></path><path d="M7.12068 12.2246L8.884 10.997C8.30251 10.2338 7.53795 9.68461 6.69532 9.36829C6.49342 9.85556 6.1919 10.3334 5.83789 10.7763C6.28478 11.1868 6.7209 11.6741 7.12068 12.2246Z" fill="#FF2E17"></path><path d="M6.76722 12.4716C6.38898 11.952 5.97978 11.4917 5.56116 11.104C5.1533 11.563 4.66334 12.0072 4.10742 12.4124L5.00389 13.6992L6.76722 12.4716Z" fill="#FF2E17"></path><path d="M2.02344 13.568C2.2415 14.0956 2.52955 14.6381 2.8876 15.1738L4.65093 13.9449L3.75446 12.6581C3.18104 13.039 2.59551 13.3445 2.02344 13.568Z" fill="#FF2E17"></path><path d="M1.61795 13.7134C1.07953 13.8911 0.527652 14.0082 0 14.0284C0.0053842 14.9289 0.254404 15.8362 0.769941 16.6465L2.53192 15.4189C2.15503 14.8522 1.84813 14.2747 1.61795 13.7134Z" fill="#FF2E17"></path><path d="M1.1523 10.8241C0.488696 11.6169 0.0996872 12.5901 0.0175781 13.5996C0.48735 13.5754 0.982696 13.4717 1.46593 13.3129C1.1846 12.5147 1.01231 11.6075 1.1523 10.8241Z" fill="#FF2E17"></path><path d="M1.86749 13.168C2.40726 12.9553 2.96183 12.6672 3.50564 12.3052L1.95633 10.0788C1.57271 10.4759 1.45291 11.1731 1.5754 12.0157C1.6279 12.3778 1.72616 12.7655 1.86749 13.168Z" fill="#FF2E17"></path><path d="M5.24016 10.8216C4.91172 10.5497 4.58194 10.3235 4.26023 10.1485C3.51318 9.74204 2.81861 9.61013 2.3125 9.83357L3.8618 12.0586C4.3908 11.6736 4.85384 11.2537 5.24016 10.8216Z" fill="#FF2E17"></path><path d="M6.28537 9.23558C5.31083 8.96234 4.26226 8.98926 3.28906 9.33788C4.07246 9.47653 4.8626 9.95437 5.51543 10.4941C5.83041 10.0957 6.09962 9.66901 6.28537 9.23558Z" fill="#FF2E17"></path><path d="M7.87554 14.4299C7.65613 13.9036 7.36808 13.3598 7.01137 12.8254L5.24805 14.053L6.14452 15.3398C6.71659 14.9589 7.30347 14.6547 7.87554 14.4299Z" fill="#FF2E17"></path><path d="M9.12661 11.3502L7.36328 12.5778C7.74152 13.1444 8.04707 13.7219 8.27725 14.2832C8.81567 14.1055 9.36755 13.9898 9.8952 13.9682C9.88982 13.0677 9.6408 12.1605 9.12661 11.3502Z" fill="#FF2E17"></path><path d="M8.74527 17.1719C9.40887 16.3791 9.79788 15.4059 9.87999 14.3963C9.41022 14.4205 8.91487 14.5242 8.43164 14.683C8.71297 15.4826 8.88661 16.3898 8.74527 17.1719Z" fill="#FF2E17"></path><path d="M8.02816 14.8301C7.48839 15.0428 6.93382 15.3309 6.38867 15.6929L7.93932 17.918C8.32295 17.5209 8.4414 16.8236 8.31891 15.9823C8.26776 15.6189 8.1695 15.2313 8.02816 14.8301Z" fill="#FF2E17"></path><path d="M4.66016 17.1761C4.98725 17.448 5.31703 17.6741 5.64008 17.8491C6.38714 18.2556 7.0817 18.3862 7.58782 18.1641L6.03717 15.9377C5.50951 16.324 5.04647 16.744 4.66016 17.1761Z" fill="#FF2E17"></path><path d="M3.61133 18.7611C4.58587 19.0343 5.63444 19.006 6.60764 18.6601C5.82558 18.5201 5.03545 18.0436 4.38261 17.5012C4.06629 17.9009 3.79708 18.3276 3.61133 18.7611Z" fill="#FF2E17"></path><path d="M2.77895 15.7726L1.01562 17.0002C1.59712 17.7634 2.36168 18.3126 3.2043 18.6289C3.40756 18.1416 3.70773 17.6638 4.06174 17.2209C3.61485 16.8104 3.18007 16.3231 2.77895 15.7726Z" fill="#FF2E17"></path><path d="M5.79261 15.5842L4.89614 14.2974L3.13281 15.525C3.51105 16.0459 3.92025 16.5049 4.33887 16.8926C4.74807 16.4336 5.23669 15.9894 5.79261 15.5842Z" fill="#FF2E17"></path><path d="M23.1913 43.0967C21.4603 42.0845 20.2758 40.7061 19.4668 39.2497C20.0362 42.2473 20.8142 44.226 21.7982 46.0674C26.7893 51.4691 27.6723 59.1914 27.6723 59.1914C27.6723 59.1914 30.4411 46.6893 23.1913 43.0967Z" fill="#1E51AB"></path></svg>