<svg width="250" height="55" viewBox="0 0 250 55" fill="none" xmlns="http://www.w3.org/2000/svg">
<g clip-path="url(#clip0_15009_19317)">
<path d="M54.8333 25.8697C54.6854 23.4964 54.2347 21.2077 53.5234 19.0352H8.9178C12.1572 11.9788 19.2805 7.07743 27.5551 7.07743V0.24292C13.0305 0.24292 1.15724 11.5704 0.273438 25.8697H54.8368H54.8333Z" fill="#DFBB24"/>
<path d="M54.0282 34.4117C54.5916 32.2286 54.8909 29.9363 54.8909 27.5771H0.214844C0.214844 42.6757 12.4543 54.9117 27.5494 54.9117C39.662 54.9117 49.9332 47.0314 53.5212 36.1194H27.5494V42.9539H41.1057C37.493 46.1441 32.7465 48.0807 27.5494 48.0807C18.6233 48.0807 11.0353 42.3764 8.21836 34.4117H54.0247H54.0282Z" fill="#DFBB24"/>
<path d="M69.0966 14.3414C69.0966 18.6371 69.2128 20.5069 69.748 21.0315C70.2304 21.4998 70.998 21.7076 73.3255 21.7076C74.9065 21.7076 76.2164 21.6829 76.9382 20.8273C77.3255 20.3625 77.6178 19.6266 77.7058 19.0667C77.7375 18.8378 77.7938 18.6935 77.9769 18.6935C78.1248 18.6935 78.16 18.8167 78.16 19.1301C78.16 19.4435 77.9452 21.204 77.7058 22.0491C77.5016 22.7216 77.4065 22.8378 75.822 22.8378C71.5368 22.8378 69.5755 22.6688 67.8396 22.6688C67.5755 22.6688 65.815 22.7498 64.9241 22.7498C64.5896 22.7498 64.4417 22.6935 64.4417 22.528C64.4417 22.44 64.498 22.3484 64.6776 22.3484C64.9452 22.3484 65.3079 22.2921 65.572 22.2357C66.1706 22.1195 66.322 21.4681 66.4347 20.6266C66.5861 19.3977 66.5861 17.0808 66.5861 14.285V9.1301C66.5861 4.57728 66.5861 3.75334 66.5227 2.8132C66.4628 1.82024 66.2304 1.35193 65.2445 1.14418C65.0086 1.08785 64.498 1.05968 64.234 1.05968C64.1178 1.05968 63.998 1.00334 63.998 0.887142C63.998 0.711085 64.1389 0.647705 64.4699 0.647705C65.8149 0.647705 67.6917 0.742776 67.8361 0.742776C67.9804 0.742776 70.1565 0.647705 71.0614 0.647705C71.3818 0.647705 71.5333 0.711085 71.5333 0.887142C71.5333 1.00334 71.4171 1.05968 71.2938 1.05968C71.0896 1.05968 70.6706 1.09137 70.3114 1.14418C69.4452 1.29207 69.2093 1.79207 69.1495 2.8132C69.0931 3.75334 69.0931 4.57728 69.0931 9.1301V14.3378L69.0966 14.3414Z" fill="white"/>
<path d="M86.7095 13.0843C86.6144 13.0843 86.5616 13.0244 86.6144 12.88L89.2341 4.97863C89.3961 4.54553 89.5405 4.54553 89.6848 4.97863L92.5123 12.88C92.544 12.9962 92.544 13.0843 92.3891 13.0843H86.706H86.7095ZM82.5334 19.5385C81.9982 21.0033 81.3996 22.1195 80.0299 22.2955C79.794 22.3237 79.3644 22.3519 79.1672 22.3519C79.0158 22.3519 78.8926 22.4117 78.8926 22.5314C78.8926 22.6969 79.0792 22.7533 79.4665 22.7533C80.8679 22.7533 82.5017 22.6723 82.8292 22.6723C83.1567 22.6723 84.4384 22.7533 85.1531 22.7533C85.4172 22.7533 85.6038 22.6969 85.6038 22.5314C85.6038 22.4117 85.5088 22.3519 85.2975 22.3519H85.0017C84.4912 22.3519 83.8715 22.0878 83.8715 21.4998C83.8715 20.9786 84.0193 20.2709 84.2869 19.542L86.0722 14.3695C86.1355 14.2251 86.213 14.1406 86.3715 14.1406H92.7764C92.9243 14.1406 92.9877 14.2005 93.051 14.3131L95.8222 21.5033C95.9982 21.9786 95.8222 22.2427 95.6426 22.3026C95.5229 22.3307 95.4278 22.3871 95.4278 22.4962C95.4278 22.6793 95.7658 22.6793 96.3257 22.704C98.3855 22.7603 100.562 22.7603 101.005 22.7603C101.329 22.7603 101.604 22.704 101.604 22.5385C101.604 22.3906 101.484 22.3589 101.305 22.3589C101.009 22.3589 100.565 22.3307 100.111 22.1829C99.4841 22.0103 98.625 21.5385 97.551 18.9329C95.7236 14.4927 91.0475 2.40821 90.6038 1.29905C90.2482 0.401164 90.1285 0.249756 89.9454 0.249756C89.7623 0.249756 89.6496 0.425812 89.2905 1.38708L82.5299 19.5455L82.5334 19.5385Z" fill="white"/>
<path d="M106.488 18.7817C106.552 21.1831 106.851 21.9366 107.657 22.176C108.221 22.3239 108.872 22.3521 109.147 22.3521C109.294 22.3521 109.382 22.4119 109.382 22.5317C109.382 22.7007 109.21 22.757 108.844 22.757C107.15 22.757 105.96 22.676 105.685 22.676C105.411 22.676 104.168 22.757 102.826 22.757C102.527 22.757 102.344 22.7288 102.344 22.5317C102.344 22.4119 102.435 22.3521 102.587 22.3521C102.826 22.3521 103.358 22.3239 103.809 22.176C104.551 21.9718 104.699 21.1162 104.699 18.4648L104.728 1.71123C104.728 0.563343 104.819 0.24292 105.048 0.24292C105.291 0.24292 105.805 0.887287 106.101 1.17602C106.548 1.6725 110.988 6.38376 115.576 11.2112C118.527 14.3098 121.77 17.8732 122.724 18.838L122.4 3.98236C122.372 2.08447 122.164 1.44715 121.242 1.20067C120.71 1.08799 120.016 1.0563 119.777 1.0563C119.566 1.0563 119.541 0.968272 119.541 0.859117C119.541 0.683061 119.777 0.64785 120.136 0.64785C121.478 0.64785 122.911 0.742921 123.238 0.742921C123.566 0.742921 124.552 0.64785 125.766 0.64785C126.097 0.64785 126.301 0.683061 126.301 0.859117C126.301 0.968272 126.182 1.0563 125.974 1.0563C125.826 1.0563 125.615 1.0563 125.263 1.14081C124.273 1.34855 124.164 1.99644 124.164 3.74996L124.101 20.8802C124.101 22.8169 124.041 22.9612 123.826 22.9612C123.594 22.9612 123.238 22.6373 121.654 21.0845C121.323 20.7922 117.037 16.4964 113.882 13.1619C110.425 9.51053 107.055 5.82039 106.104 4.76757L106.488 18.7781V18.7817Z" fill="white"/>
<path d="M132.133 8.66505C132.133 6.41505 132.133 3.42561 132.168 2.42913C132.168 2.11223 132.249 1.96434 132.524 1.85519C132.763 1.73195 133.865 1.64392 134.457 1.64392C138.006 1.64392 141.404 2.05589 144.203 4.94674C145.425 6.20378 147.066 8.60519 147.066 12.3129C147.066 15.0066 146.232 17.8235 144.686 19.3094C142.925 21.0312 140.365 22.0207 137.591 22.0207C134.077 22.0207 132.918 21.4045 132.527 20.8587C132.291 20.5312 132.228 19.3658 132.2 18.6369C132.172 18.0876 132.136 15.3904 132.136 12.2918V8.66505H132.133ZM129.636 14.2883C129.636 17.0841 129.636 19.401 129.485 20.6298C129.369 21.4714 129.217 22.1228 128.619 22.239C128.358 22.2989 127.999 22.3517 127.728 22.3517C127.552 22.3517 127.492 22.4432 127.492 22.5312C127.492 22.6967 127.64 22.7531 127.967 22.7531C128.865 22.7531 130.742 22.6721 130.89 22.6721C131.186 22.6721 134.943 23.0207 137.499 23.0207C142.566 23.0207 145.249 20.9749 146.52 19.6545C148.196 17.9362 149.742 15.0981 149.742 11.408C149.742 7.93266 148.351 5.5066 146.855 3.97843C143.309 0.386879 137.855 0.643923 134.908 0.643923C133.115 0.643923 131.239 0.738992 130.89 0.738992C130.742 0.738992 128.862 0.643923 127.52 0.643923C127.189 0.643923 127.045 0.707302 127.045 0.883358C127.045 0.999555 127.165 1.05589 127.284 1.05589C127.552 1.05589 128.055 1.08758 128.302 1.1404C129.281 1.34815 129.517 1.81646 129.58 2.80941C129.64 3.74956 129.64 4.5735 129.64 9.12632V14.2812L129.636 14.2883Z" fill="white"/>
<path d="M175.824 18.982C175.951 20.0384 176.151 21.6827 177.436 22.0841C178.306 22.3482 179.077 22.3482 179.373 22.3482C179.517 22.3482 179.613 22.3799 179.613 22.4891C179.613 22.6722 179.341 22.7532 178.986 22.7532C178.331 22.7532 175.113 22.6722 174.014 22.5806C173.324 22.5313 173.169 22.4433 173.169 22.2954C173.169 22.1757 173.232 22.1194 173.38 22.0841C173.535 22.0489 173.56 21.5525 173.503 21.0278L172.074 5.93626H171.982L164.679 21.144C164.046 22.4363 163.972 22.6898 163.694 22.6898C163.486 22.6898 163.341 22.401 162.775 21.3447C162 19.9116 159.433 14.8553 159.282 14.563C159.017 14.0384 155.679 7.02429 155.348 6.23204H155.232L154.042 19.7989C154.014 20.2637 154.014 20.7884 154.014 21.2884C154.014 21.7285 154.341 22.1123 154.789 22.1898C155.299 22.3165 155.743 22.3447 155.919 22.3447C156.039 22.3447 156.158 22.4046 156.158 22.4856C156.158 22.6933 155.975 22.7496 155.623 22.7496C154.525 22.7496 153.095 22.6687 152.852 22.6687C152.581 22.6687 151.151 22.7496 150.355 22.7496C150.053 22.7496 149.838 22.6933 149.838 22.4856C149.838 22.4046 149.989 22.3447 150.137 22.3447C150.38 22.3447 150.584 22.3447 151.039 22.2567C152.014 22.0771 152.102 20.9433 152.229 19.8271L154.373 0.756685C154.436 0.436262 154.525 0.232036 154.704 0.232036C154.884 0.232036 155 0.348233 155.148 0.675698L164.267 19.056L173.028 0.700347C173.151 0.432741 173.271 0.228516 173.479 0.228516C173.686 0.228516 173.782 0.46443 173.831 1.01725L175.824 18.9715V18.982Z" fill="white"/>
<path d="M188.797 13.0843C188.705 13.0843 188.645 13.0244 188.705 12.88L191.328 4.97863C191.48 4.54553 191.624 4.54553 191.775 4.97863L194.606 12.88C194.635 12.9962 194.635 13.0843 194.49 13.0843H188.797ZM184.624 19.5385C184.082 21.0033 183.487 22.1195 182.128 22.2955C181.885 22.3237 181.466 22.3519 181.261 22.3519C181.11 22.3519 180.99 22.4117 180.99 22.5314C180.99 22.6969 181.173 22.7533 181.55 22.7533C182.955 22.7533 184.596 22.6723 184.92 22.6723C185.244 22.6723 186.532 22.7533 187.244 22.7533C187.515 22.7533 187.691 22.6969 187.691 22.5314C187.691 22.4117 187.606 22.3519 187.395 22.3519H187.092C186.589 22.3519 185.973 22.0878 185.973 21.4998C185.973 20.9786 186.113 20.2709 186.381 19.542L188.166 14.3695C188.226 14.2251 188.318 14.1406 188.469 14.1406H194.871C195.025 14.1406 195.082 14.2005 195.138 14.3131L197.913 21.5033C198.099 21.9786 197.913 22.2427 197.737 22.3026C197.621 22.3307 197.529 22.3871 197.529 22.4962C197.529 22.6793 197.86 22.6793 198.427 22.704C200.476 22.7603 202.659 22.7603 203.106 22.7603C203.423 22.7603 203.691 22.704 203.691 22.5385C203.691 22.3906 203.578 22.3589 203.399 22.3589C203.106 22.3589 202.659 22.3307 202.209 22.1829C201.578 22.0103 200.712 21.5385 199.642 18.9329C197.828 14.4927 193.149 2.40821 192.702 1.29905C192.339 0.401164 192.226 0.249756 192.043 0.249756C191.86 0.249756 191.74 0.425812 191.395 1.38708L184.628 19.5455L184.624 19.5385Z" fill="white"/>
<path d="M209.403 2.11601C209.403 1.94348 209.495 1.82376 209.646 1.77094C209.945 1.67587 210.745 1.59489 211.639 1.59489C214.836 1.59489 216.79 3.78151 216.79 7.42939C216.79 9.66179 216.019 11.2357 214.977 11.9364C214.294 12.4118 213.456 12.4928 212.745 12.4928C211.431 12.4928 210.058 12.2921 209.618 12.0209C209.466 11.9364 209.403 11.8202 209.403 11.6794V2.11249V2.11601ZM207.023 14.2886C207.023 17.0843 207.023 19.4012 206.875 20.6301C206.748 21.4716 206.6 22.1231 206.005 22.2393C205.738 22.2991 205.375 22.3519 205.114 22.3519C204.935 22.3519 204.875 22.4435 204.875 22.5315C204.875 22.697 205.026 22.7533 205.35 22.7533C206.241 22.7533 208.125 22.6724 208.164 22.6724C208.304 22.6724 210.178 22.7533 211.815 22.7533C212.146 22.7533 212.297 22.6724 212.297 22.5315C212.297 22.4435 212.238 22.3519 212.062 22.3519C211.787 22.3519 211.128 22.2956 210.713 22.2393C209.819 22.1231 209.646 21.4716 209.551 20.6301C209.403 19.4012 209.403 17.0843 209.403 14.2886V13.5808C209.403 13.4329 209.463 13.3555 209.618 13.3555L213.28 13.4012C213.456 13.4012 213.547 13.4646 213.667 13.5773C214.262 14.3378 215.66 16.2921 216.917 17.9047C218.607 20.0984 219.653 21.528 220.935 22.197C221.709 22.6195 222.452 22.7533 224.121 22.7533H226.238C226.776 22.7533 226.959 22.697 226.959 22.5315C226.959 22.4435 226.84 22.3519 226.685 22.3519C226.509 22.3519 226.093 22.3519 225.523 22.2674C224.783 22.1512 223.495 21.8238 221.885 20.1583C220.164 18.3449 218.139 15.7393 215.688 12.6688C218.368 10.2428 219.294 8.0808 219.294 5.91883C219.294 3.89418 217.984 2.46108 217.234 1.93996C215.657 0.827282 213.664 0.647705 211.783 0.647705C210.861 0.647705 208.597 0.742776 208.273 0.742776C208.125 0.742776 206.241 0.647705 204.903 0.647705C204.579 0.647705 204.428 0.711085 204.428 0.887142C204.428 1.00334 204.544 1.05968 204.667 1.05968C204.938 1.05968 205.435 1.09137 205.681 1.14418C206.664 1.35193 206.907 1.82024 206.963 2.8132C207.026 3.75334 207.026 4.57728 207.026 9.1301V14.285L207.023 14.2886Z" fill="white"/>
<path d="M230.286 9.13376C230.286 4.58095 230.286 3.757 230.219 2.81686C230.166 1.8239 229.923 1.35559 228.944 1.14785C228.705 1.09151 228.198 1.06334 227.927 1.06334C227.807 1.06334 227.701 1.007 227.701 0.890804C227.701 0.714748 227.842 0.651367 228.173 0.651367C229.511 0.651367 231.268 0.746438 231.451 0.746438C231.712 0.746438 233.448 0.651367 234.335 0.651367C234.662 0.651367 234.814 0.714748 234.814 0.890804C234.814 1.007 234.687 1.06334 234.578 1.06334C234.37 1.06334 234.177 1.09503 233.831 1.14785C233.022 1.29573 232.793 1.79573 232.729 2.81686C232.68 3.757 232.68 4.58095 232.68 9.13376V10.8943H232.796C233.296 10.338 238.691 4.95066 239.765 3.81686C240.603 2.96123 241.377 2.20418 241.377 1.71475C241.377 1.35559 241.229 1.17954 240.99 1.09503C240.838 1.03517 240.719 0.975311 240.719 0.866156C240.719 0.718269 240.874 0.654889 241.085 0.654889C241.68 0.654889 242.603 0.74996 243.321 0.74996C243.465 0.74996 245.43 0.654889 246.173 0.654889C246.5 0.654889 246.627 0.718269 246.627 0.866156C246.627 1.01404 246.564 1.06334 246.328 1.06334C245.877 1.06334 245.254 1.20771 244.652 1.47179C243.437 2.00348 242.782 2.72883 241.441 3.98587C240.698 4.69362 235.511 9.66545 234.888 10.3943C235.659 11.2394 241.853 17.5281 243.081 18.6408C245.588 20.9119 246.096 21.3908 247.518 21.9753C248.296 22.2993 249.159 22.3556 249.374 22.3556C249.588 22.3556 249.761 22.4155 249.761 22.5352C249.761 22.6795 249.606 22.757 249.106 22.757H247.589C246.747 22.757 246.18 22.757 245.525 22.7007C243.944 22.5633 243.198 21.919 241.912 20.9119C240.581 19.838 234.265 13.1478 232.831 11.4155H232.691V14.2922C232.691 17.088 232.691 19.4049 232.831 20.6338C232.923 21.4718 233.099 22.1232 233.99 22.2429C234.412 22.3028 234.888 22.3556 235.155 22.3556C235.335 22.3556 235.395 22.4471 235.395 22.5352C235.395 22.6795 235.243 22.757 234.919 22.757C233.462 22.757 231.726 22.676 231.493 22.676C231.261 22.676 229.525 22.757 228.627 22.757C228.303 22.757 228.152 22.7007 228.152 22.5352C228.152 22.4471 228.215 22.3556 228.395 22.3556C228.666 22.3556 229.022 22.2993 229.286 22.2429C229.888 22.1267 230.029 21.4753 230.148 20.6338C230.303 19.4049 230.303 17.088 230.303 14.2922V9.13728L230.286 9.13376Z" fill="white"/>
<path d="M81.1142 47.1021C81.1142 44.7465 80.9593 44.419 79.7973 44.1127C79.5755 44.0458 79.0755 44.0141 78.8149 44.0141C78.6987 44.0141 78.5861 43.9683 78.5861 43.8521C78.5861 43.676 78.7234 43.6127 79.0509 43.6127C80.3572 43.6127 82.1882 43.7007 82.322 43.7007C82.4628 43.7007 84.2973 43.6127 85.1741 43.6127C85.4945 43.6127 85.6389 43.676 85.6389 43.8521C85.6389 43.9718 85.5157 44.0141 85.3995 44.0141C85.1988 44.0141 85.0192 44.0493 84.6741 44.1127C83.8854 44.2535 83.66 44.7465 83.5896 45.7606C83.5438 46.6972 83.5438 47.5669 83.5438 48.7817V52.0352C83.5438 53.338 83.5192 53.3979 83.1635 53.5986C81.3044 54.588 78.6917 54.9049 77.0086 54.9049C74.8079 54.9049 70.6741 54.6162 67.4487 51.7958C65.6847 50.2676 63.998 47.1584 63.998 43.5211C63.998 38.8838 66.2586 35.5986 68.8466 33.9613C71.4593 32.3415 74.3326 32.1338 76.5755 32.1338C78.4065 32.1338 80.4664 32.5176 81.0227 32.6338C81.6213 32.7817 82.6389 32.8979 83.3713 32.919C83.6635 32.9542 83.7128 33.0739 83.7128 33.176C83.7128 33.5845 83.5227 34.4084 83.5227 37.3169C83.5227 37.7746 83.4593 37.919 83.2586 37.919C83.1107 37.919 83.0826 37.7465 83.0579 37.4894C83.0297 37.0775 82.8819 36.2641 82.4452 35.5704C81.7199 34.4613 79.3642 33.2148 75.6178 33.2148C73.7868 33.2148 71.6107 33.3908 69.403 35.1373C67.7199 36.4718 66.5262 39.1197 66.5262 42.507C66.5262 46.6127 68.5896 49.5704 69.6107 50.5528C71.8995 52.7922 74.5438 53.6514 77.2128 53.6514C78.2551 53.6514 79.7692 53.4824 80.5157 53.0528C80.8995 52.8451 81.1107 52.5282 81.1107 52.0387V47.1021H81.1142Z" fill="white"/>
<path d="M90.8162 33.9891C90.8162 33.8236 90.9042 33.7074 91.0486 33.6546C91.3338 33.5631 92.126 33.475 92.9887 33.475C96.0944 33.475 98.0134 35.644 98.0134 39.2814C98.0134 41.4962 97.2598 43.056 96.2458 43.7638C95.5768 44.2285 94.7563 44.3131 94.0662 44.3131C92.7845 44.3131 91.4606 44.1124 91.0204 43.8483C90.862 43.7638 90.8162 43.6405 90.8162 43.5032V33.9926V33.9891ZM88.4817 46.0771C88.4817 48.8729 88.4817 51.1652 88.3479 52.3835C88.2211 53.225 88.0908 53.8659 87.4993 53.975C87.2387 54.0384 86.8901 54.0912 86.6331 54.0912C86.457 54.0912 86.3866 54.1722 86.3866 54.2743C86.3866 54.4469 86.5486 54.5032 86.862 54.5032C87.7352 54.5032 89.5591 54.4222 89.5908 54.4222C89.7387 54.4222 91.5556 54.5032 93.1577 54.5032C93.4852 54.5032 93.6225 54.4222 93.6225 54.2743C93.6225 54.1722 93.5627 54.0912 93.3866 54.0912C93.126 54.0912 92.4958 54.0384 92.0803 53.975C91.207 53.8694 91.038 53.225 90.9465 52.3835C90.8091 51.1652 90.8091 48.8729 90.8091 46.0771V45.38C90.8091 45.2356 90.8584 45.1511 91.0134 45.1511L94.5838 45.218C94.7493 45.218 94.8408 45.2673 94.957 45.38C95.5415 46.13 96.9007 48.0877 98.1225 49.6793C99.7775 51.8588 100.788 53.2778 102.038 53.9539C102.788 54.3623 103.524 54.5032 105.151 54.5032H107.214C107.732 54.5032 107.915 54.4469 107.915 54.2743C107.915 54.1722 107.799 54.0912 107.647 54.0912C107.475 54.0912 107.073 54.0912 106.513 54.0138C105.788 53.894 104.552 53.5736 102.978 51.9257C101.288 50.1264 99.3091 47.5349 96.9324 44.4786C99.5415 42.0736 100.45 39.9222 100.45 37.7743C100.45 35.7673 99.1683 34.3483 98.4465 33.8271C96.9007 32.7215 94.957 32.5525 93.1296 32.5525C92.2317 32.5525 90.031 32.637 89.7106 32.637C89.5556 32.637 87.7317 32.5525 86.4289 32.5525C86.1014 32.5525 85.957 32.6053 85.957 32.7849C85.957 32.9011 86.0697 32.9574 86.2 32.9574C86.457 32.9574 86.9535 32.9856 87.1753 33.0419C88.1331 33.2391 88.3761 33.7074 88.4289 34.6933C88.4817 35.63 88.4817 36.4398 88.4817 40.968V46.0771Z" fill="white"/>
<path d="M108.148 42.6827C108.148 36.3236 111.778 33.1334 116.641 33.1334C121.218 33.1334 125.461 36.8658 125.461 43.8482C125.461 52.2989 120.06 53.8025 117.447 53.8025C112.222 53.8025 108.148 49.4433 108.148 42.6827ZM105.391 43.5032C105.391 48.725 108.7 54.9081 116.662 54.9081C123.662 54.9081 128.25 49.5454 128.25 43.0313C128.25 36.5172 123.369 32.137 116.841 32.137C108.817 32.137 105.394 38.7954 105.394 43.5032" fill="white"/>
<path d="M131.406 40.9681C131.406 36.4399 131.406 35.6301 131.349 34.6934C131.282 33.7075 131.057 33.2357 130.096 33.042C129.867 32.9822 129.367 32.9575 129.113 32.9575C128.986 32.9575 128.881 32.9012 128.881 32.785C128.881 32.6054 129.025 32.5526 129.339 32.5526C130.652 32.5526 132.413 32.6371 132.68 32.6371C132.948 32.6371 134.684 32.5526 135.56 32.5526C135.884 32.5526 136.008 32.6054 136.008 32.785C136.008 32.9012 135.906 32.9575 135.789 32.9575C135.589 32.9575 135.413 32.9857 135.067 33.042C134.286 33.1582 134.043 33.6829 133.997 34.6934C133.923 35.6301 133.923 36.4399 133.923 40.9681V45.0385C133.923 49.2146 134.86 51.0139 136.106 52.2075C137.529 53.5526 138.849 53.8026 140.497 53.8026C142.268 53.8026 144.008 52.9646 145.06 51.7075C146.395 50.0561 146.74 47.5913 146.74 44.6019V40.9646C146.74 36.4364 146.74 35.6265 146.684 34.6899C146.613 33.704 146.395 33.2322 145.427 33.0385C145.201 32.9786 144.708 32.954 144.441 32.954C144.332 32.954 144.215 32.8977 144.215 32.7815C144.215 32.6019 144.349 32.5491 144.673 32.5491C145.976 32.5491 147.575 32.6336 147.758 32.6336C147.958 32.6336 149.314 32.5491 150.191 32.5491C150.515 32.5491 150.659 32.6019 150.659 32.7815C150.659 32.8977 150.546 32.954 150.423 32.954C150.229 32.954 150.043 32.954 149.701 33.0385C148.909 33.1723 148.687 33.6794 148.627 34.6899C148.56 35.6265 148.56 36.4364 148.56 40.9646V44.0737C148.56 47.2075 148.215 50.697 145.898 52.7603C143.807 54.6124 141.624 54.9012 139.909 54.9012C138.934 54.9012 136.004 54.7885 133.923 52.8378C132.508 51.4751 131.409 49.4399 131.409 45.211V40.961L131.406 40.9681Z" fill="white"/>
<path d="M154.778 40.968C154.778 36.4398 154.778 35.63 154.714 34.6933C154.658 33.7074 154.422 33.2356 153.464 33.0419C153.236 32.9821 152.739 32.9574 152.475 32.9574C152.359 32.9574 152.246 32.9011 152.246 32.7849C152.246 32.6053 152.397 32.5525 152.725 32.5525C154.021 32.5525 155.764 32.637 155.993 32.637C156.633 32.637 158.327 32.5525 159.658 32.5525C163.285 32.5525 164.595 33.7673 165.056 34.2039C165.697 34.8131 166.517 36.1264 166.517 37.6652C166.517 41.7884 163.493 44.5771 159.373 44.5771C159.228 44.5771 158.912 44.5771 158.764 44.5454C158.616 44.5454 158.443 44.4821 158.443 44.3412C158.443 44.1123 158.616 44.0807 159.228 44.0807C162.038 44.0807 164.253 42.0208 164.253 39.3447C164.253 38.394 164.158 36.4398 162.623 34.8694C161.077 33.3025 159.309 33.4187 158.647 33.4187C158.147 33.4187 157.655 33.4785 157.387 33.5877C157.218 33.6581 157.162 33.8553 157.162 34.1546V46.0807C157.162 48.8764 157.162 51.1652 157.306 52.387C157.387 53.2285 157.563 53.8694 158.443 53.9785C158.845 54.0419 159.486 54.0947 159.746 54.0947C159.922 54.0947 159.982 54.1757 159.982 54.2778C159.982 54.4257 159.834 54.5067 159.51 54.5067C157.919 54.5067 156.088 54.4257 155.95 54.4257C155.852 54.4257 154.024 54.5067 153.151 54.5067C152.827 54.5067 152.683 54.4504 152.683 54.2778C152.683 54.1757 152.746 54.0947 152.922 54.0947C153.183 54.0947 153.528 54.0419 153.792 53.9785C154.373 53.8694 154.517 53.2285 154.637 52.387C154.788 51.1687 154.788 48.8764 154.788 46.0807V40.9715L154.778 40.968Z" fill="white"/>
</g>
<defs>
<clipPath id="clip0_15009_19317">
<rect width="250" height="54.9296" fill="white"/>
</clipPath>
</defs>
</svg>
