<svg width="154" height="58" viewBox="0 0 154 58" fill="none" xmlns="http://www.w3.org/2000/svg">
<g clip-path="url(#clip0_808_282)">
<path d="M62.5615 27.2542H66.146V30.7905H62.5615V27.2542ZM150.04 39.6184C150.04 40.9908 149.193 41.6036 147.575 41.6036H143.822V37.5949H147.575C149.212 37.5949 150.04 38.2269 150.04 39.5992V39.6184ZM147.989 34.0331H139.94V50.623H143.816V44.9164H147.983C152.234 44.9164 153.994 42.2993 153.994 39.3503V39.3311C153.994 36.6502 152.415 34.0331 147.983 34.0331M134.136 42.3185C134.136 45.3249 132.02 47.3293 129.245 47.3293C126.469 47.3293 124.308 45.3249 124.308 42.3185V42.2802C124.308 39.2737 126.424 37.3077 129.245 37.3077C132.066 37.3077 134.136 39.2737 134.136 42.2802V42.3185ZM129.238 33.7459C123.907 33.7459 120.361 37.4864 120.361 42.2738V42.3121C120.361 47.0612 123.926 50.8847 129.238 50.8847C134.55 50.8847 138.07 47.0612 138.07 42.3121V42.2738C138.07 37.4864 134.524 33.7459 129.238 33.7459ZM114.809 42.3185C114.809 45.3249 112.694 47.3293 109.918 47.3293C107.142 47.3293 104.981 45.3249 104.981 42.3185V42.2802C104.981 39.2737 107.097 37.3077 109.918 37.3077C112.739 37.3077 114.809 39.2737 114.809 42.2802V42.3185ZM109.911 33.7459C104.58 33.7459 101.034 37.4864 101.034 42.2738V42.3121C101.034 47.0612 104.599 50.8847 109.911 50.8847C115.223 50.8847 118.743 47.0612 118.743 42.3121V42.2738C118.743 37.4864 115.198 33.7459 109.911 33.7459ZM89.9633 42.3185V42.3568C89.9633 45.3249 92.1179 47.3293 94.9195 47.3293C96.2265 47.3293 97.5724 47.0612 99.0023 46.2441L100.497 49.3719C98.9829 50.2719 97.2618 50.9038 94.9195 50.9038C89.588 50.9038 86.0229 47.4888 86.0229 42.3504V42.3121C86.0229 37.18 89.5686 33.7395 94.9195 33.7395C97.2036 33.7395 98.9635 34.3523 100.497 35.2714L99.0023 38.3992C97.5724 37.5822 96.2265 37.2949 94.9195 37.2949C92.1179 37.2949 89.9633 39.1588 89.9633 42.3057M80.4454 42.2419C80.4454 45.4526 78.8085 47.0675 75.5539 47.0675H73.4575V37.5949H75.5539C78.8279 37.5949 80.4454 39.1524 80.4454 42.1972V42.2355V42.2419ZM75.638 34.0331H69.5818V50.623H75.638C81.6101 50.623 84.4118 47.4697 84.4118 42.2355V42.1972C84.4118 37.1226 81.636 34.0331 75.638 34.0331ZM57.7217 43.5249L59.7534 37.7545L61.8045 43.5249H57.7217ZM57.4111 34.0331L51.2708 50.623H55.25L56.5765 46.7995H62.9432L64.2697 50.623H68.2748L62.0956 34.0331H57.4111ZM154 9.18981V10.7856H149.853V9.43875C149.853 7.74083 150.952 7.08336 152.486 7.08336H153.437V8.41106H152.505C152.111 8.41106 151.839 8.65362 151.839 9.02385V9.18981H153.994H154ZM153.858 26.2967H150.001V12.1388H153.858V26.2967ZM147.426 26.2967H136.789V22.4923H143.796V20.5263C143.796 18.9944 143.072 18.1965 141.558 18.1965H140.458V14.3729H140.956C145.453 14.3729 147.426 16.6262 147.426 20.9412V26.3031V26.2967ZM92.0791 20.3412C92.0791 18.9305 93.2373 18.1709 94.6284 18.1709H95.4566V22.486H94.6284C93.2373 22.486 92.0791 21.7264 92.0791 20.3604V20.3412ZM135.34 26.2967V21.7136C135.34 17.1943 133.159 15.1453 128.869 15.1453H117.042L120.341 9.70685H115.631L113.269 14.0857L111.768 16.8624L113.891 18.9561H129.374C130.636 18.9561 131.444 19.6901 131.444 21.0242V22.4987H99.3647V14.3729H95.5083C91.2768 14.3729 88.4557 16.7666 88.4557 20.3476V20.3667C88.4557 23.9286 91.0697 26.2967 94.9907 26.2967H95.4695C95.3272 27.0755 94.6801 27.2797 93.6643 27.2797C92.3767 27.2797 91.0503 27.1776 89.8921 26.9733L90.5327 30.5543C91.6132 30.7394 92.6291 30.7968 93.6837 30.7968C97.0224 30.7968 98.8858 29.5521 99.2805 26.2967H135.346H135.34ZM82.393 22.4923H81.5648C80.1737 22.4923 79.0155 21.7327 79.0155 20.3667V20.3476C79.0155 18.9369 80.1802 18.1773 81.5648 18.1773H82.393V22.4923ZM86.2946 14.3666H82.4383C78.2067 14.3666 75.3857 16.7602 75.3857 20.3412V20.3604C75.3857 23.9222 77.9997 26.2903 81.9207 26.2903H82.3995C82.2571 27.0691 81.6101 27.2733 80.5943 27.2733C79.3067 27.2733 77.9803 27.1712 76.8221 26.9669L77.4626 30.5479C78.5432 30.733 79.559 30.7905 80.6137 30.7905C84.4053 30.7905 86.2946 29.1755 86.2946 24.835V14.3602V14.3666ZM51.8919 18.8922V15.7581H55.7482V18.5539C55.7482 20.6093 57.1976 21.5285 59.624 21.5285H69.3683V14.3729H73.2246V24.886H58.7893C54.0207 24.886 51.8855 22.7604 51.8855 18.8986M29.3494 43.4738H14.6229C14.6229 35.4502 21.2162 28.9521 29.3494 28.9521V43.4738ZM0 0.0427246V14.5198H29.3494C13.1412 14.5198 0 27.484 0 43.4738V57.9509H29.3494V43.4738H44.024V14.5198L29.3494 0.0427246H0Z" fill="white"/>
</g>
<defs>
<clipPath id="clip0_808_282">
<rect width="154" height="57.9145" fill="white" transform="translate(0 0.0427246)"/>
</clipPath>
</defs>
</svg>
